<svg width="523" height="92" xmlns="http://www.w3.org/2000/svg"><g fill="none" fill-rule="evenodd"><path d="M445.289 34.301V33.15c0-8.885.021-17.771-.009-26.656-.015-4.389 3.665-6.713 7.428-6.167 2.32.337 4.092 1.525 5 3.74.284.694.397 1.504.398 2.262.021 17.881.053 35.763-.002 53.645-.023 7.986-2.893 14.878-8.445 20.638-3.93 4.075-8.513 7.151-13.883 8.987a33.291 33.291 0 0 1-9.815 1.79c-2.745.081-5.483.004-8.209-.453-5.306-.889-10.132-2.889-14.439-6.103-4.203-3.135-7.675-6.919-10.069-11.629a28.518 28.518 0 0 1-3.082-11.49c-.176-3.2-.015-6.367.729-9.496.944-3.968 2.643-7.584 5.111-10.82 3.491-4.577 7.806-8.174 13.033-10.628 3.324-1.561 6.822-2.511 10.476-2.917 3.359-.373 6.717-.371 10.057.103 5.582.792 10.673 2.851 15.241 6.172.088.064.177.128.271.181.032.018.084-.001.209-.008zm.022 25.679c-.016-2.342-.264-4.214-.858-6.042-1.467-4.502-4.219-8.044-8.128-10.647-4.403-2.932-9.271-4.102-14.561-3.564-4.833.491-9.089 2.317-12.585 5.644-4.706 4.479-6.949 9.975-6.134 16.548.593 4.773 2.818 8.715 6.323 11.919 3.049 2.788 6.654 4.514 10.748 5.238 2.917.516 5.816.487 8.692-.141 4.038-.881 7.589-2.739 10.538-5.659 3.81-3.776 5.913-8.308 5.965-13.296zm-196.807 5.478a18.856 18.856 0 0 0 2.861 5.462c3.006 3.983 6.998 6.506 11.769 7.779 3.646.973 7.339.98 11.033.142 3.053-.693 5.756-2.063 8.199-3.999 3.115-2.468 7.715-1.75 9.778 1.499 1.441 2.269.861 5.789-1.214 7.485-3.552 2.903-7.529 5.007-11.932 6.273-4.059 1.166-8.219 1.479-12.426 1.267-5.827-.293-11.272-1.87-16.223-4.983-5.13-3.227-9.29-7.413-12.152-12.794-2.598-4.884-3.579-10.128-3.329-15.63.36-7.925 3.472-14.601 9.057-20.188 3.946-3.948 8.526-6.863 13.846-8.56a33.674 33.674 0 0 1 9.391-1.58c3.104-.082 6.183.066 9.24.692 4.342.89 8.356 2.549 12.016 5.031 4.167 2.827 7.696 6.298 10.3 10.646 1.762 2.943 3.054 6.083 3.562 9.485.303 2.026.457 4.081.558 6.129.143 2.878-2.105 4.999-4.397 5.597a7.587 7.587 0 0 1-1.898.236c-15.734.013-31.468.01-47.201.01l-.838.001zm40.623-11.931c-2.072-6.981-9.991-14.174-20.819-13.927-9.89.226-17.751 6.711-19.732 13.927h40.551zm78.534 31.034c-.28.167-.51.282-.716.43-3.769 2.69-7.921 4.539-12.419 5.596-3.32.78-6.705.951-10.1.797-7.522-.34-14.26-2.813-20.095-7.607-3.929-3.227-7.156-7.029-9.259-11.707-1.624-3.611-2.465-7.393-2.587-11.358-.08-2.603.072-5.179.604-7.717.855-4.096 2.511-7.861 5.017-11.221 3.678-4.932 8.269-8.759 13.905-11.276 2.983-1.333 6.108-2.179 9.351-2.587a40.076 40.076 0 0 1 10.386.021c4.927.663 9.504 2.317 13.685 5.027 3.983 2.583 7.379 5.78 10.039 9.726 3.304 4.899 4.977 10.313 4.985 16.225.013 8.885-.036 17.771.025 26.657.021 2.919-2.696 5.669-5.7 5.838-1.812.101-3.48-.234-4.904-1.427-1.396-1.17-2.197-2.631-2.155-4.494.005-.221.003-.443-.001-.665 0-.044-.02-.087-.061-.258zm-21.588-45.037c-1.185.148-2.811.225-4.377.57-4.429.977-8.259 3.084-11.324 6.462-3.14 3.459-4.924 7.53-5.119 12.21-.198 4.715 1.234 8.979 4.212 12.607 5.229 6.372 12.111 8.829 20.188 7.823 4.906-.611 9.146-2.807 12.56-6.423 3.796-4.02 5.736-8.757 5.428-14.365-.177-3.196-1.103-6.135-2.818-8.795-4.283-6.639-10.533-9.758-18.75-10.089z" fill="#1C2D3B"/><path d="M26.952 91.399c-7.526-.094-14.28-2.38-20.161-7.138-2.098-1.697-3.882-3.689-5.409-5.905-2.183-3.169-.563-7.756 3.135-8.938 2.968-.948 6.144-.111 7.989 2.626 2.829 4.197 6.963 6.423 11.952 7.08 7.075.931 13.673-2.229 17.222-8.422 3.241-5.657 2.611-12.447-2.054-17.516-3.11-3.378-7.043-5.118-11.614-5.598-8.901-.933-15.801-5.148-20.293-12.953-2.41-4.187-3.096-8.771-2.501-13.584.751-6.079 3.715-10.852 8.291-14.773 2.522-2.162 5.346-3.776 8.493-4.765C26.071.236 30.235-.056 34.465.638c4.764.782 8.984 2.722 12.645 5.854 2.043 1.749 3.971 3.658 5.096 6.131 1.578 3.467-.178 7.344-4.118 8.343-2.905.737-5.265-.203-7.113-2.517-.718-.899-1.382-1.846-2.152-2.697-1.484-1.641-3.443-2.454-5.554-2.897-3.505-.737-6.841-.273-9.853 1.733-3.301 2.199-5.348 5.218-5.461 9.28-.078 2.765.955 5.192 2.75 7.278 2.377 2.764 5.431 4.1 9.049 4.386 6.323.499 11.895 2.908 16.765 6.939 3.77 3.12 6.572 6.963 8.371 11.522 1.533 3.887 1.941 7.912 1.547 12.059-.389 4.104-1.598 7.917-3.771 11.416-1.615 2.599-3.673 4.807-6.003 6.783-3.11 2.636-6.596 4.592-10.48 5.805-2.996.937-6.075 1.404-9.231 1.343z" fill="#FC6C30"/><path d="M495.311 91.411c-6.348.053-12.154-1.383-17.541-4.447-3.158-1.796-5.962-4.056-8.447-6.694-1.439-1.528-1.836-3.41-1.325-5.43.57-2.262 2.092-3.611 4.311-4.233 2.6-.728 4.697.157 6.599 1.912 1.721 1.589 3.481 3.138 5.564 4.271 2.823 1.538 5.841 2.359 9.036 2.578 3.076.21 6.091-.093 9.027-1.06a16.699 16.699 0 0 0 6.473-3.893c1.017-.985 1.343-2.503.684-3.49-.285-.426-.767-.844-1.245-.999-3.678-1.192-7.377-2.317-11.068-3.464l-10.8-3.357c-2.234-.695-4.484-1.344-6.699-2.096-2.343-.795-4.673-1.696-6.643-3.218-3.367-2.602-5.394-5.984-5.684-10.333-.298-4.482 1.404-8.127 4.467-11.258 3.283-3.357 7.325-5.408 11.729-6.83a36.91 36.91 0 0 1 11.351-1.79c2.857-.003 5.688.29 8.485.947 5.608 1.317 10.507 3.973 14.819 7.737 1.311 1.144 2.716 2.233 3.572 3.803 1.762 3.23-.321 7.537-3.902 8.373-2.8.654-4.946-.314-6.905-2.187-1.76-1.681-3.638-3.213-5.834-4.327-2.601-1.318-5.351-2.053-8.245-2.262-3.667-.265-7.243.141-10.661 1.568a16.306 16.306 0 0 0-5.071 3.319c-.907.874-1.142 1.983-.874 3.179.226 1.005 1.089 1.334 1.947 1.599 5.252 1.623 10.508 3.231 15.761 4.851 4.108 1.268 8.232 2.49 12.315 3.838 2.451.809 4.902 1.742 6.917 3.401 3.666 3.021 5.639 6.883 5.443 11.744-.153 3.817-1.822 6.909-4.411 9.586-2.915 3.014-6.454 5.034-10.368 6.444-4.181 1.509-8.489 2.274-12.777 2.218z" fill="#1C2D3B"/><path d="M174.759 79.261H219.8c2.567 0 4.97 1.547 5.901 3.786 1.284 3.088-.143 6.534-3.313 7.835-.738.303-1.579.499-2.374.5-17.327.028-34.653.023-51.98.019-2.792-.001-4.992-1.508-5.956-4.124-.217-.587-.305-1.253-.306-1.883-.015-26.389-.013-52.778-.012-79.168.001-2.591 2.05-5.102 4.679-5.75 3.191-.788 6.349.535 7.697 3.333.361.75.58 1.65.581 2.482.03 24.196.024 48.392.024 72.587 0 .087.008.174.018.383z" fill="#1D2D3B"/><path d="M99.127 91.385c-5.538.059-10.614-.915-15.37-3.222-6.828-3.312-12.159-8.26-15.677-15.024-2.007-3.856-2.964-8.01-3.101-12.37-.098-3.12.156-6.192.938-9.205a28.086 28.086 0 0 1 5.049-10.282c3.937-5.059 8.793-8.935 14.793-11.292 3.867-1.519 7.887-2.261 12.043-2.354 3.068-.07 6.107.134 9.103.781 3.453.746 6.75 1.948 9.753 3.828a48.993 48.993 0 0 1 4.488 3.177c1.919 1.526 2.542 3.615 1.968 5.95-.593 2.408-2.236 3.849-4.669 4.358-2.247.47-4.235-.081-6.033-1.488-2.556-2.001-5.402-3.443-8.578-4.146-2.209-.489-4.453-.67-6.726-.471-3.126.274-6.077 1.124-8.825 2.629-4.825 2.644-8.22 6.512-9.843 11.814-2.217 7.238.223 15.248 6.037 20.104 3.218 2.688 6.878 4.429 11.018 5.025 6.218.896 11.884-.47 16.898-4.368 2.275-1.77 4.832-2.05 7.435-.849 3.895 1.798 4.5 7.102.996 9.92-3.662 2.946-7.743 5.078-12.305 6.285-3.167.842-6.377 1.254-9.392 1.2zm37.264-31.94c0-8.662-.001-17.325.001-25.987.001-2.984 2.643-5.657 5.634-5.823 2.687-.148 4.807.76 6.269 3.054.534.837.796 1.762.795 2.767-.003 17.391 0 34.782-.004 52.173-.001 2.321-1.64 4.539-4.049 5.381-3.275 1.145-6.869-.163-8.229-3.383a5.29 5.29 0 0 1-.4-1.996c-.027-8.728-.018-17.457-.017-26.186zm6.516-36.086c-3.054-.033-5.334-1.206-6.794-3.696-1.986-3.39-.713-7.867 3.343-9.688 4.018-1.805 9.019-.058 10.478 4.348 1.141 3.441-1.011 7.5-4.593 8.618-.42.131-.854.226-1.289.298-.434.071-.876.094-1.145.12z" fill="#FC6C30"/></g></svg>